{
  "accessors": [
    {
      "bufferView": 2,
      "componentType": 5126,
      "count": 3870,
      "max": [
        0.5376530289649963,
        3.511521100997925,
        5.847912788391113
      ],
      "min": [
        -1.358299970626831,
        -3.5121469497680664,
        -5.376288890838623
      ],
      "type": "VEC3"
    },
    {
      "bufferView": 2,
      "byteOffset": 46440,
      "componentType": 5126,
      "count": 3870,
      "max": [
        1.0,
        0.9999998807907104,
        0.9997535347938538
      ],
      "min": [
        -0.9999998807907104,
        -0.9999998807907104,
        -0.9999954700469971
      ],
      "type": "VEC3"
    },
    {
      "bufferView": 3,
      "componentType": 5126,
      "count": 3870,
      "max": [
        1.0,
        1.0,
        0.9937887191772461,
        1.0
      ],
      "min": [
        -1.0,
        -1.0,
        -0.9964730739593506,
        -1.0
      ],
      "type": "VEC4"
    },
    {
      "bufferView": 1,
      "componentType": 5126,
      "count": 3870,
      "max": [
        0.9984740018844604,
        0.9996700286865234
      ],
      "min": [
        0.0,
        0.0
      ],
      "type": "VEC2"
    },
    {
      "bufferView": 0,
      "componentType": 5125,
      "count": 14316,
      "type": "SCALAR"
    },
    {
      "bufferView": 2,
      "byteOffset": 92880,
      "componentType": 5126,
      "count": 8,
      "max": [
        0.38289400935173035,
        0.441646009683609,
        4.356464862823486
      ],
      "min": [
        -0.22703899443149567,
        -0.44082799553871155,
        3.780245065689087
      ],
      "type": "VEC3"
    },
    {
      "bufferView": 1,
      "byteOffset": 30960,
      "componentType": 5126,
      "count": 8,
      "max": [
        0.0,
        0.0
      ],
      "min": [
        0.0,
        0.0
      ],
      "type": "VEC2"
    },
    {
      "bufferView": 0,
      "byteOffset": 57264,
      "componentType": 5125,
      "count": 12,
      "type": "SCALAR"
    },
    {
      "bufferView": 2,
      "byteOffset": 92976,
      "componentType": 5126,
      "count": 969,
      "max": [
        0.8772310018539429,
        4.975852966308594,
        6.3483099937438965
      ],
      "min": [
        -1.6010340452194214,
        -5.005773067474365,
        -6.382955074310303
      ],
      "type": "VEC3"
    },
    {
      "bufferView": 2,
      "byteOffset": 104604,
      "componentType": 5126,
      "count": 969,
      "max": [
        0.9999704360961914,
        0.9999622106552124,
        0.9760622382164001
      ],
      "min": [
        -0.9999873638153076,
        -1.0,
        -0.6766253113746643
      ],
      "type": "VEC3"
    },
    {
      "bufferView": 3,
      "byteOffset": 61920,
      "componentType": 5126,
      "count": 969,
      "max": [
        0.9984749555587769,
        1.0,
        0.9999663829803467,
        1.0
      ],
      "min": [
        -0.9999884366989136,
        -1.0,
        -1.0,
        -1.0
      ],
      "type": "VEC4"
    },
    {
      "bufferView": 1,
      "byteOffset": 31024,
      "componentType": 5126,
      "count": 969,
      "max": [
        0.9980739951133728,
        0.6035739779472351
      ],
      "min": [
        0.0,
        0.0
      ],
      "type": "VEC2"
    },
    {
      "bufferView": 0,
      "byteOffset": 57312,
      "componentType": 5125,
      "count": 3546,
      "type": "SCALAR"
    }
  ],
  "asset": {
    "extras": {
      "author": "Kommander Karl (https://sketchfab.com/kommanderkarl)",
      "license": "CC-BY-4.0 (http://creativecommons.org/licenses/by/4.0/)",
      "source": "https://sketchfab.com/3d-models/skyrim-glass-shield-726cefb9a53b4c35b462a6e96ac9ae3d",
      "title": "Skyrim Glass Shield"
    },
    "generator": "Sketchfab-12.68.0",
    "version": "2.0"
  },
  "bufferViews": [
    {
      "buffer": 0,
      "byteLength": 71496,
      "name": "floatBufferViews",
      "target": 34963
    },
    {
      "buffer": 0,
      "byteLength": 38776,
      "byteOffset": 71496,
      "byteStride": 8,
      "name": "floatBufferViews",
      "target": 34962
    },
    {
      "buffer": 0,
      "byteLength": 116232,
      "byteOffset": 110272,
      "byteStride": 12,
      "name": "floatBufferViews",
      "target": 34962
    },
    {
      "buffer": 0,
      "byteLength": 77424,
      "byteOffset": 226504,
      "byteStride": 16,
      "name": "floatBufferViews",
      "target": 34962
    }
  ],
  "buffers": [
    {
      "byteLength": 303928,
      "uri": "scene.bin"
    }
  ],
  "images": [
    {
      "uri": "textures/None.003_baseColor.png"
    },
    {
      "uri": "textures/None.003_metallicRoughness.png"
    },
    {
      "uri": "textures/None.003_normal.png"
    },
    {
      "uri": "textures/None.010_baseColor.png"
    },
    {
      "uri": "textures/None.010_metallicRoughness.png"
    },
    {
      "uri": "textures/None.010_normal.png"
    }
  ],
  "materials": [
    {
      "doubleSided": true,
      "name": "None.003",
      "normalTexture": {
        "index": 2
      },
      "occlusionTexture": {
        "index": 1
      },
      "pbrMetallicRoughness": {
        "baseColorTexture": {
          "index": 0
        },
        "metallicRoughnessTexture": {
          "index": 1
        }
      }
    },
    {
      "name": "None.010",
      "normalTexture": {
        "index": 5
      },
      "occlusionTexture": {
        "index": 4
      },
      "pbrMetallicRoughness": {
        "baseColorTexture": {
          "index": 3
        },
        "metallicFactor": 0.0,
        "metallicRoughnessTexture": {
          "index": 4
        }
      }
    }
  ],
  "meshes": [
    {
      "name": "Object_0",
      "primitives": [
        {
          "attributes": {
            "NORMAL": 1,
            "POSITION": 0,
            "TANGENT": 2,
            "TEXCOORD_0": 3
          },
          "indices": 4,
          "material": 0,
          "mode": 4
        }
      ]
    },
    {
      "name": "Object_1",
      "primitives": [
        {
          "attributes": {
            "POSITION": 5,
            "TEXCOORD_0": 6
          },
          "indices": 7,
          "material": 1,
          "mode": 1
        }
      ]
    },
    {
      "name": "Object_2",
      "primitives": [
        {
          "attributes": {
            "NORMAL": 9,
            "POSITION": 8,
            "TANGENT": 10,
            "TEXCOORD_0": 11
          },
          "indices": 12,
          "material": 1,
          "mode": 4
        }
      ]
    }
  ],
  "nodes": [
    {
      "children": [
        1
      ],
      "matrix": [
        1.0,
        0.0,
        0.0,
        0.0,
        0.0,
        2.220446049250313e-16,
        -1.0,
        0.0,
        0.0,
        1.0,
        2.220446049250313e-16,
        0.0,
        0.0,
        0.0,
        0.0,
        1.0
      ],
      "name": "Sketchfab_model"
    },
    {
      "children": [
        2,
        3,
        4
      ],
      "name": "GlassShield_curved.obj.cleaner.materialmerger.gles"
    },
    {
      "mesh": 0,
      "name": "Object_2"
    },
    {
      "mesh": 1,
      "name": "Object_3"
    },
    {
      "mesh": 2,
      "name": "Object_4"
    }
  ],
  "samplers": [
    {
      "magFilter": 9729,
      "minFilter": 9987,
      "wrapS": 10497,
      "wrapT": 10497
    }
  ],
  "scene": 0,
  "scenes": [
    {
      "name": "Sketchfab_Scene",
      "nodes": [
        0
      ]
    }
  ],
  "textures": [
    {
      "sampler": 0,
      "source": 0
    },
    {
      "sampler": 0,
      "source": 1
    },
    {
      "sampler": 0,
      "source": 2
    },
    {
      "sampler": 0,
      "source": 3
    },
    {
      "sampler": 0,
      "source": 4
    },
    {
      "sampler": 0,
      "source": 5
    }
  ]
}
